<?xml version="1.0" encoding="utf-8"?>
<!-- Generator: Adobe Illustrator 12.0.0, SVG Export Plug-In . SVG Version: 6.00 Build 51448)  -->
<!DOCTYPE svg PUBLIC "-//W3C//DTD SVG 1.1//EN" "http://www.w3.org/Graphics/SVG/1.1/DTD/svg11.dtd" [
	<!ENTITY ns_svg "http://www.w3.org/2000/svg">
	<!ENTITY ns_xlink "http://www.w3.org/1999/xlink">
]>
<svg  version="1.1" id="レイヤー_1" xmlns="&ns_svg;" xmlns:xlink="&ns_xlink;" width="97.999" height="76.667"
	 viewBox="0 0 97.999 76.667" overflow="visible" enable-background="new 0 0 97.999 76.667" xml:space="preserve">
<g>
	<path fill="#4B4B4A" d="M35.76,11.627c2.499,0.75,6.875-4.253,6.875-4.253s-3.92-3.538-6.252-5.871
		c-1.377-1.376-6.199-2.396-7.884-0.333C27.827,1.994,24.75,4.63,24.75,4.63s-4.993,0-7.992,0c-2.999,0-4.753,1.249-5.252,2.744
		c-0.5,1.504-3,8.25-3,8.25L0,16.875c0,0,0.309,8.481,0.309,11.48s1.381,5.434,5.752,5.998c3.714,0.479,8.007,1.313,8.007,1.313
		l2.175,3.983l25.5-19.688C41.744,19.963,39.759,15.625,35.76,11.627z"/>
	<path fill="#4B4B4A" d="M95.463,13.353c-1.833-0.495-3.72,0.588-4.22,2.417c-0.024,0.103-1.817,6.419-6.203,12.049
		c-2.695-2.122-5.969-3.386-9.477-3.386c-9.002,0-31.096,0-31.096,0L18.502,44.229l9.344,32.438h8.644l1.571-14.5
		c4.503,0,34.001,0,34.001,0l7.658,14.5H91.06c0,0,1.005-24.002,1.005-34.002c0-3.475-0.927-6.722-2.483-9.5
		c5.895-6.988,8.153-15.073,8.296-15.597C98.378,15.733,97.296,13.848,95.463,13.353z"/>
</g>
</svg>
